<?xml version="1.0" standalone="no"?>
<!DOCTYPE svg PUBLIC "-//W3C//DTD SVG 20010904//EN"
 "http://www.w3.org/TR/2001/REC-SVG-20010904/DTD/svg10.dtd">
<svg version="1.0" xmlns="http://www.w3.org/2000/svg"
 width="864.000000pt" height="864.000000pt" viewBox="0 0 864.000000 864.000000"
 preserveAspectRatio="xMidYMid meet">
<metadata>
Created by potrace 1.14, written by Peter Selinger 2001-2017
</metadata>
<g transform="translate(0.000000,864.000000) scale(0.100000,-0.100000)"
fill="#000000" stroke="none">
<path d="M4079 8636 c-2 -2 -47 -6 -99 -10 -52 -4 -106 -8 -120 -10 -14 -3
-49 -7 -78 -10 -68 -8 -122 -15 -148 -21 -12 -3 -39 -7 -60 -11 -146 -22 -447
-98 -618 -156 -462 -156 -869 -372 -1261 -667 -55 -42 -102 -79 -105 -82 -3
-3 -34 -30 -70 -60 -79 -66 -157 -138 -269 -250 -470 -473 -823 -1050 -1036
-1694 -29 -89 -80 -264 -90 -313 -2 -9 -11 -48 -20 -87 -9 -38 -19 -81 -21
-95 -3 -14 -11 -61 -19 -105 -8 -44 -17 -100 -20 -125 -3 -25 -10 -78 -15
-118 -19 -141 -25 -259 -25 -502 0 -280 6 -366 36 -590 11 -78 14 -100 30
-190 6 -30 13 -68 15 -85 14 -77 88 -355 125 -466 92 -281 268 -674 382 -852
20 -31 37 -60 37 -63 0 -19 301 -445 354 -500 6 -6 27 -30 46 -54 19 -23 67
-76 105 -118 507 -548 1129 -951 1825 -1181 234 -78 555 -155 732 -175 13 -2
46 -6 73 -10 168 -23 305 -31 555 -31 218 0 407 8 465 20 11 2 44 7 73 10 64
6 120 14 148 20 12 3 39 7 60 10 21 3 82 15 134 26 624 130 1215 399 1725 784
66 50 131 100 145 112 14 12 36 31 50 43 168 143 304 281 525 530 90 102 312
419 396 565 19 33 39 68 44 77 45 76 169 331 220 453 150 361 262 779 301
1127 3 29 7 63 9 76 20 125 27 615 13 797 -60 729 -299 1427 -694 2030 -71
109 -185 268 -211 293 -7 7 -13 16 -13 20 0 4 -15 23 -33 43 -17 20 -48 55
-67 79 -62 75 -172 191 -290 306 -507 496 -1183 879 -1875 1064 -132 36 -319
77 -383 86 -26 3 -49 7 -52 9 -3 2 -34 6 -70 10 -36 4 -67 8 -70 10 -3 2 -43
6 -90 10 -47 4 -94 9 -105 12 -23 5 -591 14 -596 9z"/>
</g>
</svg>
